<?xml version="1.0" encoding="UTF-8"?><svg id="Layer_2" xmlns="http://www.w3.org/2000/svg" width="549.47" height="176.18" viewBox="0 0 549.47 176.18"><defs><style>.cls-1{stroke-width:0px;}</style></defs><g id="Layer_2-2"><g id="Layer_1-2"><path class="cls-1" d="m46,173.65H0V2.53h71.53c15.18,0,28.75,9.43,28.75,31.97v17.02c0,18.17-8.74,25.76-16.33,29.44,7.82,3.22,16.79,11.5,16.79,24.38v54.97c0,5.29.92,9.66,2.3,12.19v1.15h-45.31c-1.84-2.3-3.22-6.67-3.22-11.04v-49.45c0-3.68-.69-6.21-4.83-6.21h-3.68s0,66.7,0,66.7Zm0-103.5h3.68c3.45,0,4.83-2.07,4.83-5.98v-22.77c0-4.37-.69-6.21-4.6-6.21h-3.91v34.96Z"/><path class="cls-1" d="m210.45,124.43c0,34.04-19.78,51.75-48.76,51.75h-8.05c-31.05,0-48.99-18.86-48.99-51.75V53.36C104.65,20.47,119.37,0,153.64,0h7.82c34.27,0,48.99,21.16,48.99,53.36v71.07h0Zm-47.38-76.59c0-5.06-1.38-7.82-5.52-7.82-3.91,0-5.29,2.53-5.29,7.82v80.73c0,4.83,1.61,7.13,5.29,7.13s5.52-2.3,5.52-7.13V47.84Z"/><path class="cls-1" d="m299.46,2.53v41.17h-20.7v129.95h-45.77V43.7h-20.7V2.53h87.17Z"/><path class="cls-1" d="m345.92,152.49h-16.79l-2.07,21.16h-39.56L309.81,2.53h57.73l24.84,171.12h-44.39l-2.07-21.16h0Zm-12.88-38.41h8.97l-4.6-45.08-4.37,45.08Z"/><path class="cls-1" d="m465.98,2.53v41.17h-20.7v129.95h-45.77V43.7h-20.7V2.53h87.17Z"/><path class="cls-1" d="m548.32,2.53v41.17h-33.81v20.47h27.83v42.09h-27.83v25.76h34.96v41.63h-79.81V2.53h78.66,0Z"/></g></g></svg>