<?xml version="1.0" encoding="UTF-8"?><svg id="Layer_2" xmlns="http://www.w3.org/2000/svg" width="1204.27" height="245.64" viewBox="0 0 1204.27 245.64"><g id="Layer_2-2"><g><path d="M48.99,200.56H2.99V29.44H74.52c15.18,0,28.75,9.43,28.75,31.97v17.02c0,18.17-8.74,25.76-16.33,29.44,7.82,3.22,16.79,11.5,16.79,24.38v54.97c0,5.29,.92,9.66,2.3,12.19v1.15H60.72c-1.84-2.3-3.22-6.67-3.22-11.04v-49.45c0-3.68-.69-6.21-4.83-6.21h-3.68v66.7Zm0-103.5h3.68c3.45,0,4.83-2.07,4.83-5.98v-22.77c0-4.37-.69-6.21-4.6-6.21h-3.91v34.96Z"/><path d="M214.59,151.34c0,34.04-19.78,51.75-48.76,51.75h-8.05c-31.05,0-48.99-18.86-48.99-51.75V80.27c0-32.89,14.72-53.36,48.99-53.36h7.82c34.27,0,48.99,21.16,48.99,53.36v71.07Zm-47.38-76.59c0-5.06-1.38-7.82-5.52-7.82-3.91,0-5.29,2.53-5.29,7.82v80.73c0,4.83,1.61,7.13,5.29,7.13s5.52-2.3,5.52-7.13V74.75Z"/><path d="M304.75,29.44v41.17h-20.7V200.56h-45.77V70.61h-20.7V29.44h87.17Z"/><path d="M352.36,179.4h-16.79l-2.07,21.16h-39.56l22.31-171.12h57.73l24.84,171.12h-44.39l-2.07-21.16Zm-12.88-38.41h8.97l-4.6-45.08-4.37,45.08Z"/><path d="M473.57,29.44v41.17h-20.7V200.56h-45.77V70.61h-20.7V29.44h87.17Z"/><path d="M557.06,29.44v41.17h-33.81v20.47h27.83v42.09h-27.83v25.76h34.96v41.63h-79.81V29.44h78.66Z"/><path d="M646.29,26.91c32.89,0,43.47,16.33,43.47,36.57v17.71h-44.39v-15.18c0-3.68-1.15-5.75-4.6-5.75-3.22,0-4.6,2.07-4.6,5.75v5.06c0,5.52,1.38,8.51,6.9,12.42l21.85,15.41c19.32,13.57,26.91,25.53,26.91,48.07v8.97c0,27.37-14.26,47.15-47.84,47.15h-10.81c-29.67,0-45.08-13.57-45.08-40.25v-23.69h45.08v20.01c0,4.37,.92,7.13,4.83,7.13,3.68,0,4.83-2.76,4.83-7.59v-6.21c0-7.36-.69-10.58-8.05-16.1l-21.85-15.41c-16.33-11.5-23.46-25.99-23.46-44.85v-8.74c0-23.46,13.8-40.48,46-40.48h10.81Z"/><path d="M696.21,29.44h47.38v124.2c0,4.83,1.84,6.9,5.06,6.9,3.45,0,4.83-2.3,4.83-6.9V29.44h47.38V158.93c0,23.46-16.1,44.62-48.76,44.62h-7.36c-35.42,0-48.53-20.47-48.53-44.62V29.44Z"/><path d="M852.37,29.44l17.71,77.74V29.44h38.64V200.56h-41.4l-21.39-84.41v84.41h-39.1V29.44h45.54Z"/><path d="M914.93,29.44h65.78c19.78,0,35.42,9.89,35.42,38.87v91.31c0,29.21-15.41,40.94-34.96,40.94h-66.24V29.44Zm44.85,133.63h4.37c4.37,0,5.52-2.76,5.52-8.97V74.29c0-5.29-1.15-8.28-5.52-8.28h-4.37v97.06Z"/><path d="M1073.86,179.4h-16.79l-2.07,21.16h-39.56l22.31-171.12h57.73l24.84,171.12h-44.39l-2.07-21.16Zm-12.88-38.41h8.97l-4.6-45.08-4.37,45.08Z"/><path d="M1176.9,138.92v61.64h-45.77v-61.64l-29.67-109.48h45.54l8.28,51.29,7.59-51.29h41.4l-27.37,109.48Z"/></g></g></svg>