<?xml version="1.0" encoding="UTF-8"?><svg id="Layer_2" xmlns="http://www.w3.org/2000/svg" width="342.59" height="75.55" viewBox="0 0 342.59 75.55"><g id="Layer_1-2"><g><path d="M29.97,61.69H1.83V9.06H45.59c9.29,0,17.59,2.9,17.59,9.83v5.23c0,5.59-5.35,7.92-9.99,9.05,4.78,.99,10.27,3.54,10.27,7.5v16.91c0,1.63,.56,2.97,1.41,3.75v.35h-27.72c-1.13-.71-1.97-2.05-1.97-3.4v-15.21c0-1.13-.42-1.91-2.95-1.91h-2.25v20.51Zm0-31.83h2.25c2.11,0,2.95-.64,2.95-1.84v-7c0-1.34-.42-1.91-2.81-1.91h-2.39v10.75Z"/><path d="M131.27,46.55c0,10.47-12.1,15.92-29.83,15.92h-4.92c-18.99,0-29.97-5.8-29.97-15.92V24.69c0-10.12,9-16.41,29.97-16.41h4.78c20.96,0,29.97,6.51,29.97,16.41v21.86Zm-28.98-23.56c0-1.56-.84-2.4-3.38-2.4-2.39,0-3.24,.78-3.24,2.4v24.83c0,1.49,.98,2.19,3.24,2.19s3.38-.71,3.38-2.19V22.99Z"/><path d="M186.42,9.06v12.66h-12.66V61.69h-28V21.72h-12.66V9.06h53.33Z"/><path d="M215.54,55.18h-10.27l-1.27,6.51h-24.2l13.65-52.63h35.32l15.2,52.63h-27.16l-1.27-6.51Zm-7.88-11.81h5.49l-2.81-13.86-2.67,13.86Z"/><path d="M289.69,9.06v12.66h-12.66V61.69h-28V21.72h-12.66V9.06h53.33Z"/><path d="M340.76,9.06v12.66h-20.68v6.3h17.02v12.95h-17.02v7.92h21.39v12.8h-48.82V9.06h48.12Z"/></g></g></svg>